<?xml version="1.0" encoding="UTF-8"?>
<svg xmlns="http://www.w3.org/2000/svg" xmlns:xlink="http://www.w3.org/1999/xlink" width="64pt" height="64pt" viewBox="0 0 64 64" version="1.1">
<g id="surface3911491">
<path style="fill-rule:nonzero;fill:rgb(0%,0%,0%);fill-opacity:1;stroke-width:10;stroke-linecap:butt;stroke-linejoin:round;stroke:rgb(80.000001%,80.000001%,80.000001%);stroke-opacity:1;stroke-miterlimit:10;" d="M 114.752616 23.379486 C 118.786897 25.664092 121.74017 29.430908 122.954912 34.000121 C 124.15851 38.569335 123.489844 43.272282 121.205237 47.295419 L 116.234824 56.032647 C 115.699892 56.968779 114.886349 57.648589 113.816484 57.916055 C 113.415285 58.049788 113.147819 58.049788 112.74662 58.049788 C 112.06681 58.049788 111.398144 57.916055 110.729479 57.514856 L 87.482211 44.07468 C 85.598803 43.004816 84.930138 40.441598 86.000003 38.569335 L 90.836683 29.832107 C 93.121289 25.797825 96.888105 22.844553 101.457318 21.629811 C 103.162415 21.184034 104.900945 20.994579 106.606042 21.050301 C 109.459015 21.161745 112.233976 21.952999 114.752616 23.379486 Z M 83.04673 51.7309 C 84.930138 52.811909 85.598803 55.363982 84.517794 57.247389 L 43.807214 127.657859 C 39.906666 134.377946 37.622059 141.900432 37.22086 149.556651 L 36.685927 158.828812 L 44.47588 153.724666 C 50.928501 149.422918 56.300113 143.650107 60.200662 137.063752 L 100.911242 66.653283 C 101.992251 64.769875 104.544324 64.10121 106.427731 65.171075 C 108.299995 66.252084 108.979804 68.804157 107.898795 70.67642 L 67.188215 141.098034 C 62.752735 148.887986 56.433846 155.47434 49.045093 160.444753 L 34.535054 169.98438 C 33.866388 170.385579 33.052845 170.653046 32.250447 170.653046 C 31.581781 170.653046 30.901972 170.519313 30.233306 170.118113 C 28.895975 169.315715 28.082432 167.833506 28.216165 166.362442 L 29.297175 149.021719 C 29.832107 140.150758 32.38418 131.41353 36.953394 123.623577 L 77.530241 53.213108 C 78.21005 52.031799 79.458226 51.3297 80.750979 51.229401 C 81.542233 51.173678 82.344632 51.3297 83.04673 51.7309 Z M 119.589296 162.595627 C 121.873903 162.595627 123.623577 164.345302 123.623577 166.629909 C 123.623577 168.914515 121.873903 170.653046 119.589296 170.653046 L 65.83974 170.653046 C 63.555133 170.653046 61.816603 168.914515 61.816603 166.629909 C 61.816603 164.345302 63.555133 162.595627 65.83974 162.595627 Z M 143.78384 166.629909 C 143.78384 168.847649 141.978443 170.653046 139.749558 170.653046 C 137.520674 170.653046 135.715277 168.847649 135.715277 166.629909 C 135.715277 164.401024 137.520674 162.595627 139.749558 162.595627 C 141.978443 162.595627 143.78384 164.401024 143.78384 166.629909 Z M 143.78384 166.629909 " transform="matrix(0.350512,0,0,0.350512,1.856,1.856)"/>
<path style=" stroke:none;fill-rule:nonzero;fill:rgb(100%,100%,100%);fill-opacity:1;" d="M 39.222656 9.234375 C 38.625 9.214844 38.015625 9.28125 37.417969 9.4375 C 35.816406 9.863281 34.496094 10.898438 33.695312 12.3125 L 32 15.375 C 31.625 16.03125 31.859375 16.929688 32.519531 17.304688 L 40.667969 22.015625 C 40.902344 22.15625 41.136719 22.203125 41.375 22.203125 C 41.515625 22.203125 41.609375 22.203125 41.75 22.15625 C 42.125 22.0625 42.410156 21.824219 42.597656 21.496094 L 44.339844 18.433594 C 45.140625 17.023438 45.375 15.375 44.953125 13.773438 C 44.527344 12.171875 43.492188 10.851562 42.078125 10.050781 C 41.195312 9.550781 40.222656 9.273438 39.222656 9.234375 Z M 30.160156 19.8125 C 29.707031 19.847656 29.269531 20.09375 29.03125 20.507812 L 14.808594 45.1875 C 13.207031 47.917969 12.3125 50.980469 12.125 54.089844 L 11.746094 60.167969 C 11.699219 60.683594 11.984375 61.203125 12.453125 61.484375 C 12.6875 61.625 12.925781 61.671875 13.160156 61.671875 C 13.441406 61.671875 13.726562 61.578125 13.960938 61.4375 L 19.046875 58.09375 C 21.636719 56.351562 23.851562 54.042969 25.40625 51.3125 L 39.675781 26.628906 C 40.054688 25.972656 39.816406 25.078125 39.160156 24.699219 C 38.5 24.324219 37.605469 24.558594 37.226562 25.21875 L 22.957031 49.898438 C 21.589844 52.207031 19.707031 54.230469 17.445312 55.738281 L 14.714844 57.527344 L 14.902344 54.277344 C 15.042969 51.59375 15.84375 48.957031 17.210938 46.601562 L 31.480469 21.921875 C 31.859375 21.261719 31.625 20.367188 30.964844 19.988281 C 30.71875 19.847656 30.4375 19.792969 30.160156 19.8125 Z M 24.933594 58.847656 C 24.132812 58.847656 23.523438 59.460938 23.523438 60.261719 C 23.523438 61.0625 24.132812 61.671875 24.933594 61.671875 L 43.773438 61.671875 C 44.574219 61.671875 45.1875 61.0625 45.1875 60.261719 C 45.1875 59.460938 44.574219 58.847656 43.773438 58.847656 Z M 50.839844 58.847656 C 50.058594 58.847656 49.425781 59.480469 49.425781 60.261719 C 49.425781 61.039062 50.058594 61.671875 50.839844 61.671875 C 51.621094 61.671875 52.253906 61.039062 52.253906 60.261719 C 52.253906 59.480469 51.621094 58.847656 50.839844 58.847656 Z M 50.839844 58.847656 "/>
</g>
</svg>
