<?xml version="1.0" encoding="UTF-8"?><svg width="40px" height="40px" viewBox="0 0 62 62" version="1.1" xmlns="http://www.w3.org/2000/svg" xmlns:xlink="http://www.w3.org/1999/xlink">
    <title>Icon</title>
    <g id="Page-1" stroke="none" stroke-width="1" fill="none" fill-rule="evenodd">
        <g id="Mini-Program-Logo" transform="translate(-115.000000, -59.000000)" fill="#2BA245" fill-rule="nonzero">
            <g id="1" transform="translate(115.000000, 59.000000)">
                <path d="M30.6,0 C13.7,0 -3.55271368e-15,13.7 -3.55271368e-15,30.6 C-3.55271368e-15,47.5 13.7,61.2 30.6,61.2 C47.5,61.2 61.2,47.5 61.2,30.6 C61.2,13.7 47.5,0 30.6,0 Z M48.7,28.1 C47.3,30.3 45.1,32 42.4,32.8 C42.3,32.8 42.3,32.8 42.2,32.9 C41.8,33 41.4,33.1 40.9,33.1 C39,33.1 38,31.8 38.5,30.3 C38.9,29.2 40,28.2 41.3,27.8 C43.4,27 44.8,25.3 44.8,23.3 C44.8,20.6 42.2,18.4 39,18.4 C35.8,18.4 33.2,20.6 33.2,23.3 L33.2,38.2 C33.2,41.8 31.1,44.9 28,46.7 C26.3,47.7 24.3,48.2 22.2,48.2 C16.1,48.2 11.2,43.7 11.2,38.2 C11.2,36.4 11.7,34.8 12.6,33.3 C14,31.1 16.2,29.4 18.9,28.6 C18.9,28.6 18.9,28.6 18.9,28.6 C19.4,28.5 19.8,28.4 20.3,28.4 C22.2,28.4 23.2,29.7 22.7,31.2 C22.3,32.3 21.3,33.2 20.1,33.7 C20,33.7 19.8,33.8 19.7,33.9 C17.8,34.7 16.5,36.3 16.5,38.3 C16.5,41 19.1,43.2 22.3,43.2 C25.5,43.2 28.1,41 28.1,38.3 L28.1,23.4 C28.1,19.8 30.2,16.7 33.3,14.9 C35,13.9 37,13.4 39.1,13.4 C45.2,13.4 50.1,17.9 50.1,23.4 C50.1,25 49.6,26.6 48.7,28.1 Z" id="Icon"></path>
            </g>
        </g>
    </g>
</svg>
