<?xml version="1.0" ?><svg id="Layer_1" style="enable-background:new 0 0 24 24;" version="1.1" viewBox="0 0 24 24" xml:space="preserve" xmlns="http://www.w3.org/2000/svg" xmlns:xlink="http://www.w3.org/1999/xlink"><g id="XMLID_1321_"><path d="   M12.627,9.655c0,0,0.721-1.009,0.096-1.655" id="XMLID_1322_" style="fill:none;stroke:#303C42;stroke-linecap:round;stroke-linejoin:round;stroke-miterlimit:10;"/><path d="   M11.374,9.655c0,0-0.721-1.009-0.096-1.655" id="XMLID_1323_" style="fill:none;stroke:#303C42;stroke-linecap:round;stroke-linejoin:round;stroke-miterlimit:10;"/><polyline id="XMLID_1324_" points="   18.5,0.5 18.5,6.5 13.339,10.642  " style="fill:none;stroke:#303C42;stroke-linecap:round;stroke-linejoin:round;stroke-miterlimit:10;"/><polyline id="XMLID_1325_" points="   13.294,11.562 18.5,10.5 21.5,6.5  " style="fill:none;stroke:#303C42;stroke-linecap:round;stroke-linejoin:round;stroke-miterlimit:10;"/><polyline id="XMLID_1326_" points="   13.25,12 18.5,12.5 21.5,16.5  " style="fill:none;stroke:#303C42;stroke-linecap:round;stroke-linejoin:round;stroke-miterlimit:10;"/><polyline id="XMLID_1327_" points="   13.75,13.477 18.5,16.5 18.5,23.5  " style="fill:none;stroke:#303C42;stroke-linecap:round;stroke-linejoin:round;stroke-miterlimit:10;"/><polyline id="XMLID_1328_" points="   5.5,0.5 5.5,6.5 10.642,10.642  " style="fill:none;stroke:#303C42;stroke-linecap:round;stroke-linejoin:round;stroke-miterlimit:10;"/><polyline id="XMLID_1329_" points="   10.706,11.562 5.5,10.5 2.5,6.5  " style="fill:none;stroke:#303C42;stroke-linecap:round;stroke-linejoin:round;stroke-miterlimit:10;"/><polyline id="XMLID_1330_" points="   10.75,12 5.5,12.5 2.5,16.5  " style="fill:none;stroke:#303C42;stroke-linecap:round;stroke-linejoin:round;stroke-miterlimit:10;"/><polyline id="XMLID_1331_" points="   10.251,13.477 5.5,16.5 5.5,23.5  " style="fill:none;stroke:#303C42;stroke-linecap:round;stroke-linejoin:round;stroke-miterlimit:10;"/><line id="XMLID_1332_" style="fill:none;stroke:#303C42;stroke-linecap:round;stroke-linejoin:round;stroke-miterlimit:10;" x1="12" x2="12" y1="15.5" y2="18.5"/><line id="XMLID_1333_" style="fill:none;stroke:#303C42;stroke-linecap:round;stroke-linejoin:round;stroke-miterlimit:10;" x1="11" x2="13" y1="16.5" y2="16.5"/><path d="   M15.5,18c0,1.933-1.567,3.5-3.5,3.5S8.5,19.933,8.5,18s1.567-5.5,3.5-5.5S15.5,16.067,15.5,18z" id="XMLID_1334_" style="fill:none;stroke:#303C42;stroke-linecap:round;stroke-linejoin:round;stroke-miterlimit:10;"/><path d="   M13.157,12.931l0.194-1.938C13.431,10.194,12.803,9.5,12,9.5s-1.431,0.693-1.351,1.493l0.194,1.938" id="XMLID_1335_" style="fill:none;stroke:#303C42;stroke-linecap:round;stroke-linejoin:round;stroke-miterlimit:10;"/></g></svg>